<svg width="233" height="800" viewBox="0 0 233 800" fill="none" xmlns="http://www.w3.org/2000/svg">
<g id="C">
<circle id="Ellipse 3" cx="116.5" cy="683.5" r="114" stroke="#666666" stroke-width="5"/>
<g id="Line 4" filter="url(#filter0_d_13_31)">
<path d="M117 0L117 567" stroke="#666666" stroke-width="3"/>
</g>
<g id="C_2" filter="url(#filter1_d_13_31)">
<mask id="path-3-outside-1_13_31" maskUnits="userSpaceOnUse" x="62.8625" y="631.37" width="81.4608" height="135.561" fill="black">
<rect fill="white" x="62.8625" y="631.37" width="81.4608" height="135.561"/>
<path d="M137.8 720.395C131.427 730.438 125.035 738.717 118.624 745.234C112.212 751.75 106.157 756.469 100.458 759.389C94.7598 762.31 89.5293 763.332 84.767 762.454C80.1112 761.582 76.3018 758.723 73.3387 753.876C70.3757 749.03 68.4215 742.151 67.476 733.24C66.5306 724.328 66.9748 713.244 68.8087 699.985C70.3235 688.846 72.3396 679.442 74.8569 671.77C77.486 663.998 80.3659 657.626 83.4965 652.656C86.6271 647.685 89.9126 643.897 93.3529 641.291C96.7931 638.685 100.085 636.927 103.227 636.015C106.476 635.108 109.424 634.881 112.072 635.333C114.719 635.785 116.816 636.583 118.361 637.728C120.22 638.995 121.789 640.729 123.068 642.928C124.454 645.133 125.376 648.063 125.835 651.717C126.406 655.269 126.4 659.701 125.815 665.012C125.231 670.323 123.954 676.667 121.986 684.045L117.526 680.299C118.366 676.283 118.813 672.674 118.865 669.472C118.896 666.697 118.595 664.172 117.96 661.898C117.331 659.517 115.956 658.167 113.836 657.848C113.303 657.822 112.337 657.934 110.936 658.185C109.54 658.329 107.927 659.637 106.095 662.109C104.37 664.587 102.563 668.715 100.673 674.495C98.7894 680.169 97.0979 688.415 95.599 699.234C94.2118 709.952 93.6204 718.626 93.8248 725.258C94.141 731.788 95.0213 736.638 96.4657 739.807C98.0167 742.981 100.071 744.632 102.627 744.759C105.291 744.891 108.226 743.863 111.432 741.672C114.744 739.487 118.264 736.352 121.992 732.265C125.724 728.072 129.54 723.295 133.437 717.936L137.8 720.395Z"/>
</mask>
<path d="M137.8 720.395C131.427 730.438 125.035 738.717 118.624 745.234C112.212 751.75 106.157 756.469 100.458 759.389C94.7598 762.31 89.5293 763.332 84.767 762.454C80.1112 761.582 76.3018 758.723 73.3387 753.876C70.3757 749.03 68.4215 742.151 67.476 733.24C66.5306 724.328 66.9748 713.244 68.8087 699.985C70.3235 688.846 72.3396 679.442 74.8569 671.77C77.486 663.998 80.3659 657.626 83.4965 652.656C86.6271 647.685 89.9126 643.897 93.3529 641.291C96.7931 638.685 100.085 636.927 103.227 636.015C106.476 635.108 109.424 634.881 112.072 635.333C114.719 635.785 116.816 636.583 118.361 637.728C120.22 638.995 121.789 640.729 123.068 642.928C124.454 645.133 125.376 648.063 125.835 651.717C126.406 655.269 126.4 659.701 125.815 665.012C125.231 670.323 123.954 676.667 121.986 684.045L117.526 680.299C118.366 676.283 118.813 672.674 118.865 669.472C118.896 666.697 118.595 664.172 117.96 661.898C117.331 659.517 115.956 658.167 113.836 657.848C113.303 657.822 112.337 657.934 110.936 658.185C109.54 658.329 107.927 659.637 106.095 662.109C104.37 664.587 102.563 668.715 100.673 674.495C98.7894 680.169 97.0979 688.415 95.599 699.234C94.2118 709.952 93.6204 718.626 93.8248 725.258C94.141 731.788 95.0213 736.638 96.4657 739.807C98.0167 742.981 100.071 744.632 102.627 744.759C105.291 744.891 108.226 743.863 111.432 741.672C114.744 739.487 118.264 736.352 121.992 732.265C125.724 728.072 129.54 723.295 133.437 717.936L137.8 720.395Z" fill="#4285F4"/>
<path d="M137.8 720.395L138.645 720.931L139.209 720.041L138.292 719.524L137.8 720.395ZM118.624 745.234L119.336 745.935L118.624 745.234ZM100.458 759.389L100.915 760.279L100.458 759.389ZM84.767 762.454L84.5828 763.437L84.5858 763.438L84.767 762.454ZM73.3387 753.876L72.4856 754.398L73.3387 753.876ZM67.476 733.24L66.4816 733.345L67.476 733.24ZM68.8087 699.985L69.7992 700.122L69.7995 700.12L68.8087 699.985ZM74.8569 671.77L73.9096 671.45L73.9067 671.459L74.8569 671.77ZM83.4965 652.656L84.3427 653.189L84.3427 653.189L83.4965 652.656ZM93.3529 641.291L93.9566 642.088L93.3529 641.291ZM103.227 636.015L102.958 635.051L102.948 635.054L103.227 636.015ZM112.072 635.333L112.24 634.347L112.24 634.347L112.072 635.333ZM118.361 637.728L117.765 638.532L117.781 638.543L117.797 638.555L118.361 637.728ZM123.068 642.928L122.204 643.431L122.212 643.446L122.222 643.46L123.068 642.928ZM125.835 651.717L124.843 651.841L124.845 651.858L124.848 651.875L125.835 651.717ZM125.815 665.012L126.809 665.121L126.809 665.121L125.815 665.012ZM121.986 684.045L121.342 684.811L122.546 685.822L122.952 684.303L121.986 684.045ZM117.526 680.299L116.547 680.094L116.425 680.68L116.883 681.065L117.526 680.299ZM118.865 669.472L119.865 669.489L119.865 669.484L118.865 669.472ZM117.96 661.898L116.993 662.154L116.997 662.167L117.96 661.898ZM113.836 657.848L113.985 656.859L113.936 656.852L113.886 656.85L113.836 657.848ZM110.936 658.185L111.039 659.179L111.076 659.176L111.112 659.169L110.936 658.185ZM106.095 662.109L105.292 661.514L105.283 661.526L105.274 661.538L106.095 662.109ZM100.673 674.495L101.622 674.811L101.624 674.806L100.673 674.495ZM95.599 699.234L94.6084 699.097L94.6072 699.106L95.599 699.234ZM93.8248 725.258L92.8253 725.289L92.8255 725.298L92.826 725.306L93.8248 725.258ZM96.4657 739.807L95.5558 740.222L95.5614 740.234L95.5673 740.246L96.4657 739.807ZM111.432 741.672L110.881 740.838L110.874 740.842L110.867 740.847L111.432 741.672ZM121.992 732.265L122.731 732.939L122.739 732.93L121.992 732.265ZM133.437 717.936L133.928 717.064L133.152 716.627L132.628 717.347L133.437 717.936ZM136.956 719.859C130.61 729.859 124.26 738.079 117.911 744.532L119.336 745.935C125.81 739.356 132.244 731.017 138.645 720.931L136.956 719.859ZM117.911 744.532C111.545 751.002 105.575 755.644 100.002 758.499L100.915 760.279C106.74 757.294 112.879 752.498 119.336 745.935L117.911 744.532ZM100.002 758.499C94.4368 761.352 89.4327 762.297 84.9482 761.471L84.5858 763.438C89.6258 764.366 95.0828 763.268 100.915 760.279L100.002 758.499ZM84.9511 761.471C80.6287 760.662 77.0393 758.012 74.1919 753.355L72.4856 754.398C75.5643 759.433 79.5937 762.502 84.5828 763.437L84.9511 761.471ZM74.1919 753.355C71.3381 748.687 69.4083 741.974 68.4705 733.134L66.4816 733.345C67.4346 742.328 69.4133 749.373 72.4856 754.398L74.1919 753.355ZM68.4705 733.134C67.5367 724.333 67.9716 713.335 69.7992 700.122L67.8181 699.848C65.978 713.152 65.5245 724.324 66.4816 733.345L68.4705 733.134ZM69.7995 700.12C71.3091 689.02 73.3144 679.678 75.807 672.082L73.9067 671.459C71.3648 679.205 69.3379 688.673 67.8178 699.85L69.7995 700.12ZM75.8041 672.091C78.4172 664.366 81.2668 658.072 84.3427 653.189L82.6503 652.123C79.4649 657.181 76.5548 663.63 73.9096 671.45L75.8041 672.091ZM84.3427 653.189C87.4307 648.285 90.6402 644.6 93.9566 642.088L92.7491 640.494C89.1849 643.193 85.8235 647.085 82.6503 652.123L84.3427 653.189ZM93.9566 642.088C97.3288 639.534 100.511 637.844 103.506 636.975L102.948 635.054C99.6576 636.009 96.2575 637.837 92.7491 640.494L93.9566 642.088ZM103.496 636.978C106.638 636.101 109.434 635.897 111.903 636.319L112.24 634.347C109.415 633.865 106.314 634.115 102.958 635.052L103.496 636.978ZM111.903 636.319C114.454 636.754 116.386 637.51 117.765 638.532L118.956 636.925C117.245 635.657 114.984 634.816 112.24 634.347L111.903 636.319ZM117.797 638.555C119.518 639.727 120.99 641.344 122.204 643.431L123.933 642.426C122.588 640.114 120.922 638.263 118.924 636.902L117.797 638.555ZM122.222 643.46C123.504 645.502 124.395 648.276 124.843 651.841L126.828 651.592C126.357 647.849 125.403 644.765 123.915 642.396L122.222 643.46ZM124.848 651.875C125.4 655.308 125.4 659.642 124.821 664.903L126.809 665.121C127.399 659.76 127.413 655.231 126.823 651.558L124.848 651.875ZM124.821 664.903C124.244 670.147 122.98 676.439 121.019 683.787L122.952 684.303C124.928 676.895 126.218 670.498 126.809 665.121L124.821 664.903ZM122.629 683.28L118.169 679.534L116.883 681.065L121.342 684.811L122.629 683.28ZM118.505 680.504C119.355 676.442 119.811 672.768 119.865 669.489L117.865 669.456C117.814 672.579 117.378 676.124 116.547 680.094L118.505 680.504ZM119.865 669.484C119.897 666.63 119.587 664.009 118.923 661.629L116.997 662.167C117.602 664.336 117.896 666.764 117.865 669.461L119.865 669.484ZM118.927 661.643C118.579 660.326 118.005 659.218 117.158 658.387C116.303 657.547 115.229 657.047 113.985 656.859L113.687 658.837C114.564 658.969 115.236 659.303 115.757 659.814C116.285 660.332 116.712 661.089 116.993 662.154L118.927 661.643ZM113.886 656.85C113.224 656.817 112.151 656.951 110.76 657.2L111.112 659.169C112.522 658.917 113.383 658.827 113.786 658.847L113.886 656.85ZM110.833 657.19C109.87 657.29 108.939 657.776 108.049 658.497C107.154 659.223 106.236 660.239 105.292 661.514L106.899 662.705C107.786 661.507 108.59 660.633 109.309 660.051C110.033 659.464 110.606 659.224 111.039 659.179L110.833 657.19ZM105.274 661.538C103.462 664.141 101.618 668.386 99.7229 674.185L101.624 674.806C103.507 669.045 105.278 665.033 106.916 662.681L105.274 661.538ZM99.7244 674.18C97.8115 679.941 96.1101 688.258 94.6084 699.097L96.5895 699.371C98.0858 688.572 99.7674 680.397 101.622 674.811L99.7244 674.18ZM94.6072 699.106C93.217 709.848 92.6186 718.581 92.8253 725.289L94.8243 725.227C94.6223 718.671 95.2067 710.056 96.5907 699.362L94.6072 699.106ZM92.826 725.306C93.1439 731.872 94.0309 736.876 95.5558 740.222L97.3757 739.392C96.0117 736.4 95.1381 731.705 94.8236 725.21L92.826 725.306ZM95.5673 740.246C97.2093 743.607 99.5237 745.606 102.578 745.758L102.677 743.76C100.618 743.658 98.8242 742.356 97.3642 739.368L95.5673 740.246ZM102.578 745.758C105.539 745.905 108.689 744.757 111.996 742.498L110.867 740.847C107.763 742.968 105.043 743.878 102.677 743.76L102.578 745.758ZM111.982 742.507C115.385 740.263 118.967 737.065 122.73 732.939L121.253 731.591C117.561 735.639 114.103 738.712 110.881 740.838L111.982 742.507ZM122.739 732.93C126.497 728.708 130.332 723.905 134.246 718.524L132.628 717.347C128.747 722.685 124.952 727.435 121.245 731.6L122.739 732.93ZM132.946 718.807L137.309 721.266L138.292 719.524L133.928 717.064L132.946 718.807Z" fill="black" mask="url(#path-3-outside-1_13_31)"/>
</g>
</g>
<defs>
<filter id="filter0_d_13_31" x="111.5" y="0" width="11" height="575" filterUnits="userSpaceOnUse" color-interpolation-filters="sRGB">
<feFlood flood-opacity="0" result="BackgroundImageFix"/>
<feColorMatrix in="SourceAlpha" type="matrix" values="0 0 0 0 0 0 0 0 0 0 0 0 0 0 0 0 0 0 127 0" result="hardAlpha"/>
<feOffset dy="4"/>
<feGaussianBlur stdDeviation="2"/>
<feComposite in2="hardAlpha" operator="out"/>
<feColorMatrix type="matrix" values="0 0 0 0 0 0 0 0 0 0 0 0 0 0 0 0 0 0 0.25 0"/>
<feBlend mode="normal" in2="BackgroundImageFix" result="effect1_dropShadow_13_31"/>
<feBlend mode="normal" in="SourceGraphic" in2="effect1_dropShadow_13_31" result="shape"/>
</filter>
<filter id="filter1_d_13_31" x="59.9449" y="632.78" width="86.0337" height="141.159" filterUnits="userSpaceOnUse" color-interpolation-filters="sRGB">
<feFlood flood-opacity="0" result="BackgroundImageFix"/>
<feColorMatrix in="SourceAlpha" type="matrix" values="0 0 0 0 0 0 0 0 0 0 0 0 0 0 0 0 0 0 127 0" result="hardAlpha"/>
<feOffset dy="4"/>
<feGaussianBlur stdDeviation="2"/>
<feComposite in2="hardAlpha" operator="out"/>
<feColorMatrix type="matrix" values="0 0 0 0 0 0 0 0 0 0 0 0 0 0 0 0 0 0 0.25 0"/>
<feBlend mode="normal" in2="BackgroundImageFix" result="effect1_dropShadow_13_31"/>
<feBlend mode="normal" in="SourceGraphic" in2="effect1_dropShadow_13_31" result="shape"/>
</filter>
</defs>
</svg>
