<svg width="233" height="800" viewBox="0 0 233 800" fill="none" xmlns="http://www.w3.org/2000/svg">
<g id="C">
<circle id="Ellipse 4" cx="116.5" cy="683.5" r="114" stroke="#666666" stroke-width="5"/>
<g id="Line 5" filter="url(#filter0_d_13_32)">
<path d="M117 0L117 567" stroke="#666666" stroke-width="3"/>
</g>
<g id="C_2" filter="url(#filter1_d_13_32)">
<mask id="path-3-outside-1_13_32" maskUnits="userSpaceOnUse" x="78.658" y="589.727" width="105.69" height="146.585" fill="black">
<rect fill="white" x="78.658" y="589.727" width="105.69" height="146.585"/>
<path d="M170.492 673.089C167.405 684.576 163.775 694.386 159.6 702.518C155.425 710.651 151.054 716.961 146.486 721.449C141.919 725.937 137.231 728.473 132.424 729.057C127.72 729.614 123.231 728.021 118.957 724.28C114.683 720.538 110.765 714.556 107.204 706.333C103.642 698.11 100.758 687.397 98.5525 674.195C96.6747 663.112 95.7926 653.534 95.9061 645.461C96.0963 637.258 96.9437 630.318 98.4485 624.639C99.9533 618.961 101.959 614.365 104.465 610.851C106.971 607.338 109.587 604.677 112.315 602.869C115.145 601.034 117.891 599.938 120.553 599.579C123.215 599.221 125.454 599.357 127.27 599.989C129.423 600.643 131.438 601.83 133.315 603.547C135.295 605.238 137.05 607.759 138.578 611.109C140.183 614.33 141.499 618.562 142.526 623.805C143.553 629.048 144.228 635.485 144.551 643.114L139.176 640.869C138.78 636.785 138.129 633.207 137.224 630.136C136.426 627.478 135.384 625.158 134.1 623.177C132.789 621.092 131.074 620.214 128.955 620.542C128.439 620.676 127.55 621.072 126.288 621.729C124.999 622.283 123.849 624.013 122.838 626.919C121.931 629.798 121.438 634.278 121.36 640.359C121.254 646.336 122.101 654.711 123.898 665.484C125.772 676.128 127.796 684.584 129.97 690.852C132.221 696.991 134.508 701.357 136.832 703.951C139.26 706.517 141.713 707.48 144.191 706.838C146.772 706.17 149.266 704.312 151.673 701.265C154.183 698.191 156.607 694.148 158.945 689.135C161.256 684.019 163.472 678.322 165.593 672.043L170.492 673.089Z"/>
</mask>
<path d="M170.492 673.089C167.405 684.576 163.775 694.386 159.6 702.518C155.425 710.651 151.054 716.961 146.486 721.449C141.919 725.937 137.231 728.473 132.424 729.057C127.72 729.614 123.231 728.021 118.957 724.28C114.683 720.538 110.765 714.556 107.204 706.333C103.642 698.11 100.758 687.397 98.5525 674.195C96.6747 663.112 95.7926 653.534 95.9061 645.461C96.0963 637.258 96.9437 630.318 98.4485 624.639C99.9533 618.961 101.959 614.365 104.465 610.851C106.971 607.338 109.587 604.677 112.315 602.869C115.145 601.034 117.891 599.938 120.553 599.579C123.215 599.221 125.454 599.357 127.27 599.989C129.423 600.643 131.438 601.83 133.315 603.547C135.295 605.238 137.05 607.759 138.578 611.109C140.183 614.33 141.499 618.562 142.526 623.805C143.553 629.048 144.228 635.485 144.551 643.114L139.176 640.869C138.78 636.785 138.129 633.207 137.224 630.136C136.426 627.478 135.384 625.158 134.1 623.177C132.789 621.092 131.074 620.214 128.955 620.542C128.439 620.676 127.55 621.072 126.288 621.729C124.999 622.283 123.849 624.013 122.838 626.919C121.931 629.798 121.438 634.278 121.36 640.359C121.254 646.336 122.101 654.711 123.898 665.484C125.772 676.128 127.796 684.584 129.97 690.852C132.221 696.991 134.508 701.357 136.832 703.951C139.26 706.517 141.713 707.48 144.191 706.838C146.772 706.17 149.266 704.312 151.673 701.265C154.183 698.191 156.607 694.148 158.945 689.135C161.256 684.019 163.472 678.322 165.593 672.043L170.492 673.089Z" fill="#0F9D58"/>
<path d="M170.492 673.089L171.457 673.349L171.731 672.331L170.7 672.111L170.492 673.089ZM159.6 702.518L160.49 702.975L159.6 702.518ZM146.486 721.449L147.187 722.163L146.486 721.449ZM132.424 729.057L132.542 730.05L132.545 730.049L132.424 729.057ZM118.957 724.28L118.298 725.032L118.957 724.28ZM107.204 706.333L106.286 706.73L107.204 706.333ZM98.5525 674.195L99.5388 674.03L99.5384 674.028L98.5525 674.195ZM95.9061 645.461L94.9064 645.438L94.9062 645.447L95.9061 645.461ZM98.4485 624.639L99.4152 624.896L99.4152 624.896L98.4485 624.639ZM104.465 610.851L105.279 611.432L104.465 610.851ZM112.315 602.869L111.771 602.03L111.762 602.036L112.315 602.869ZM120.553 599.579L120.42 598.588L120.419 598.588L120.553 599.579ZM127.27 599.989L126.942 600.933L126.96 600.94L126.979 600.946L127.27 599.989ZM133.315 603.547L132.64 604.285L132.652 604.297L132.666 604.308L133.315 603.547ZM138.578 611.109L137.668 611.524L137.676 611.54L137.683 611.555L138.578 611.109ZM142.526 623.805L143.508 623.613L143.508 623.613L142.526 623.805ZM144.551 643.114L144.165 644.037L145.616 644.643L145.55 643.072L144.551 643.114ZM139.176 640.869L138.181 640.966L138.239 641.562L138.791 641.792L139.176 640.869ZM137.224 630.136L138.183 629.853L138.182 629.849L137.224 630.136ZM134.1 623.177L133.253 623.709L133.261 623.721L134.1 623.177ZM128.955 620.542L128.802 619.554L128.753 619.562L128.705 619.574L128.955 620.542ZM126.288 621.729L126.683 622.648L126.717 622.633L126.75 622.616L126.288 621.729ZM122.838 626.919L121.894 626.591L121.889 626.605L121.885 626.619L122.838 626.919ZM121.36 640.359L122.36 640.376L122.36 640.372L121.36 640.359ZM123.898 665.484L122.912 665.649L122.913 665.658L123.898 665.484ZM129.97 690.852L129.025 691.18L129.028 691.188L129.031 691.197L129.97 690.852ZM136.832 703.951L136.088 704.618L136.096 704.628L136.106 704.638L136.832 703.951ZM151.673 701.265L150.898 700.633L150.893 700.639L150.888 700.645L151.673 701.265ZM158.945 689.135L159.851 689.558L159.856 689.547L158.945 689.135ZM165.593 672.043L165.802 671.065L164.931 670.88L164.646 671.723L165.593 672.043ZM169.526 672.83C166.453 684.267 162.845 694.007 158.71 702.062L160.49 702.975C164.705 694.764 168.358 684.884 171.457 673.349L169.526 672.83ZM158.71 702.062C154.565 710.136 150.252 716.347 145.785 720.736L147.187 722.163C151.856 717.575 156.285 711.166 160.49 702.975L158.71 702.062ZM145.785 720.736C141.325 725.119 136.83 727.515 132.304 728.064L132.545 730.049C137.632 729.432 142.513 726.756 147.187 722.163L145.785 720.736ZM132.307 728.064C127.939 728.581 123.723 727.123 119.616 723.527L118.298 725.032C122.739 728.92 127.501 730.646 132.542 730.05L132.307 728.064ZM119.616 723.527C115.499 719.924 111.654 714.093 108.121 705.935L106.286 706.73C109.876 715.019 113.866 721.153 118.298 725.032L119.616 723.527ZM108.121 705.935C104.604 697.813 101.737 687.187 99.5388 674.03L97.5661 674.36C99.7796 687.607 102.681 698.406 106.286 706.73L108.121 705.935ZM99.5384 674.028C97.6671 662.983 96.7936 653.469 96.906 645.475L94.9062 645.447C94.7915 653.599 95.6822 663.241 97.5665 674.362L99.5384 674.028ZM96.9059 645.484C97.0948 637.332 97.9367 630.475 99.4152 624.896L97.4819 624.383C95.9507 630.161 95.0977 637.185 94.9064 645.438L96.9059 645.484ZM99.4152 624.896C100.899 619.294 102.863 614.819 105.279 611.432L103.651 610.271C101.054 613.911 99.0071 618.628 97.4819 624.383L99.4152 624.896ZM105.279 611.432C107.735 607.988 110.269 605.425 112.867 603.703L111.762 602.036C108.906 603.929 106.206 606.688 103.651 610.271L105.279 611.432ZM112.859 603.708C115.596 601.934 118.204 600.905 120.687 600.57L120.419 598.588C117.579 598.971 114.694 600.135 111.771 602.03L112.859 603.708ZM120.687 600.57C123.251 600.225 125.32 600.37 126.942 600.933L127.599 599.044C125.587 598.345 123.179 598.216 120.42 598.588L120.687 600.57ZM126.979 600.946C128.971 601.551 130.858 602.655 132.64 604.285L133.99 602.81C132.017 601.004 129.874 599.735 127.561 599.032L126.979 600.946ZM132.666 604.308C134.499 605.873 136.177 608.256 137.668 611.524L139.488 610.694C137.922 607.262 136.092 604.603 133.964 602.787L132.666 604.308ZM137.683 611.555C139.234 614.667 140.528 618.804 141.545 623.997L143.508 623.613C142.471 618.32 141.133 613.993 139.473 610.663L137.683 611.555ZM141.545 623.997C142.559 629.175 143.23 635.558 143.551 643.156L145.55 643.072C145.226 635.412 144.547 628.922 143.508 623.613L141.545 623.997ZM144.936 642.191L139.562 639.947L138.791 641.792L144.165 644.037L144.936 642.191ZM140.172 640.773C139.771 636.642 139.111 633 138.183 629.853L136.265 630.419C137.148 633.415 137.789 636.928 138.181 640.966L140.172 640.773ZM138.182 629.849C137.361 627.115 136.283 624.706 134.939 622.633L133.261 623.721C134.486 625.61 135.49 627.841 136.266 630.424L138.182 629.849ZM134.946 622.645C134.221 621.492 133.343 620.606 132.286 620.065C131.22 619.519 130.045 619.362 128.802 619.554L129.108 621.531C129.984 621.395 130.726 621.513 131.375 621.845C132.033 622.182 132.667 622.778 133.253 623.709L134.946 622.645ZM128.705 619.574C128.063 619.74 127.08 620.189 125.826 620.842L126.75 622.616C128.02 621.954 128.815 621.612 129.206 621.51L128.705 619.574ZM125.893 620.81C125.004 621.192 124.26 621.935 123.626 622.889C122.988 623.848 122.415 625.092 121.894 626.591L123.783 627.248C124.272 625.84 124.78 624.766 125.291 623.996C125.808 623.219 126.283 622.819 126.683 622.648L125.893 620.81ZM121.885 626.619C120.931 629.644 120.439 634.246 120.36 640.346L122.36 640.372C122.438 634.311 122.931 629.953 123.792 627.22L121.885 626.619ZM120.36 640.341C120.253 646.41 121.111 654.856 122.912 665.649L124.885 665.32C123.09 654.566 122.256 646.262 122.36 640.376L120.36 640.341ZM122.913 665.658C124.792 676.325 126.827 684.84 129.025 691.18L130.915 690.525C128.766 684.328 126.753 675.93 124.883 665.311L122.913 665.658ZM129.031 691.197C131.294 697.368 133.634 701.88 136.088 704.618L137.577 703.283C135.382 700.834 133.147 696.613 130.909 690.508L129.031 691.197ZM136.106 704.638C138.676 707.355 141.481 708.573 144.442 707.806L143.94 705.87C141.944 706.387 139.844 705.68 137.559 703.263L136.106 704.638ZM144.442 707.806C147.311 707.063 149.975 705.028 152.458 701.885L150.888 700.645C148.558 703.596 146.234 705.277 143.94 705.87L144.442 707.806ZM152.447 701.898C155.026 698.74 157.49 694.619 159.851 689.558L158.039 688.713C155.723 693.677 153.34 697.643 150.898 700.633L152.447 701.898ZM159.856 689.547C162.183 684.396 164.411 678.668 166.54 672.363L164.646 671.723C162.534 677.976 160.329 683.642 158.033 688.724L159.856 689.547ZM165.384 673.021L170.283 674.067L170.7 672.111L165.802 671.065L165.384 673.021Z" fill="black" mask="url(#path-3-outside-1_13_32)"/>
</g>
</g>
<defs>
<filter id="filter0_d_13_32" x="111.5" y="0" width="11" height="575" filterUnits="userSpaceOnUse" color-interpolation-filters="sRGB">
<feFlood flood-opacity="0" result="BackgroundImageFix"/>
<feColorMatrix in="SourceAlpha" type="matrix" values="0 0 0 0 0 0 0 0 0 0 0 0 0 0 0 0 0 0 127 0" result="hardAlpha"/>
<feOffset dy="4"/>
<feGaussianBlur stdDeviation="2"/>
<feComposite in2="hardAlpha" operator="out"/>
<feColorMatrix type="matrix" values="0 0 0 0 0 0 0 0 0 0 0 0 0 0 0 0 0 0 0.25 0"/>
<feBlend mode="normal" in2="BackgroundImageFix" result="effect1_dropShadow_13_32"/>
<feBlend mode="normal" in="SourceGraphic" in2="effect1_dropShadow_13_32" result="shape"/>
</filter>
<filter id="filter1_d_13_32" x="76.0056" y="591.615" width="109.915" height="151.584" filterUnits="userSpaceOnUse" color-interpolation-filters="sRGB">
<feFlood flood-opacity="0" result="BackgroundImageFix"/>
<feColorMatrix in="SourceAlpha" type="matrix" values="0 0 0 0 0 0 0 0 0 0 0 0 0 0 0 0 0 0 127 0" result="hardAlpha"/>
<feOffset dy="4"/>
<feGaussianBlur stdDeviation="2"/>
<feComposite in2="hardAlpha" operator="out"/>
<feColorMatrix type="matrix" values="0 0 0 0 0 0 0 0 0 0 0 0 0 0 0 0 0 0 0.25 0"/>
<feBlend mode="normal" in2="BackgroundImageFix" result="effect1_dropShadow_13_32"/>
<feBlend mode="normal" in="SourceGraphic" in2="effect1_dropShadow_13_32" result="shape"/>
</filter>
</defs>
</svg>
