<svg width="233" height="800" viewBox="0 0 233 800" fill="none" xmlns="http://www.w3.org/2000/svg">
<g id="L">
<circle id="Ellipse 6" cx="116.5" cy="683.5" r="114" stroke="#666666" stroke-width="5"/>
<g id="Line 2" filter="url(#filter0_d_13_29)">
<path d="M117 0L117 567" stroke="#666666" stroke-width="3"/>
</g>
<g id="L_2" filter="url(#filter1_d_13_29)">
<mask id="path-3-outside-1_13_29" maskUnits="userSpaceOnUse" x="60.7078" y="628.103" width="78.665" height="127.046" fill="black">
<rect fill="white" x="60.7078" y="628.103" width="78.665" height="127.046"/>
<path d="M126.664 741.732C125.55 741.621 123.693 741.905 121.092 742.584C118.585 743.272 115.646 744.058 112.275 744.942C108.904 745.825 105.301 746.686 101.466 747.523C97.6309 748.36 93.8281 748.872 90.0576 749.06C86.38 749.256 82.8926 748.955 79.5955 748.158C76.3911 747.37 73.6834 745.834 71.4722 743.55C69.3821 741.935 67.9137 739.256 67.0672 735.514C66.2207 731.771 65.7686 727.365 65.711 722.294C65.7463 717.233 66.111 711.688 66.8053 705.661C67.4996 699.633 68.3424 693.527 69.3338 687.341C70.3345 681.063 71.3677 674.928 72.4335 668.938C73.6014 662.864 74.6255 657.291 75.5059 652.22C76.3955 647.056 77.0718 642.621 77.5348 638.916C78.0999 635.126 78.2335 632.373 77.9357 630.655C83.0341 630.318 87.3899 630.846 91.0031 632.238C92.5357 632.86 93.9987 633.709 95.3921 634.786C96.7949 635.769 97.9748 637.106 98.932 638.796C99.8984 640.393 100.545 642.38 100.871 644.758C101.299 647.051 101.216 649.763 100.623 652.893C99.761 657.779 98.7648 663.541 97.6342 670.182C96.513 676.73 95.4196 683.468 94.3542 690.397C93.3816 697.334 92.5205 704.096 91.7707 710.68C91.0301 717.172 90.6189 722.712 90.5371 727.3C92.7657 726.584 95.3286 725.808 98.2258 724.971C101.132 724.041 104.601 723.12 108.631 722.209C111.129 721.613 113.302 721.455 115.15 721.732C117.008 721.918 118.601 722.404 119.929 723.193C121.257 723.982 122.326 725.027 123.134 726.327C123.952 727.534 124.621 728.82 125.142 730.185C126.322 733.397 126.83 737.247 126.664 741.732Z"/>
</mask>
<path d="M126.664 741.732C125.55 741.621 123.693 741.905 121.092 742.584C118.585 743.272 115.646 744.058 112.275 744.942C108.904 745.825 105.301 746.686 101.466 747.523C97.6309 748.36 93.8281 748.872 90.0576 749.06C86.38 749.256 82.8926 748.955 79.5955 748.158C76.3911 747.37 73.6834 745.834 71.4722 743.55C69.3821 741.935 67.9137 739.256 67.0672 735.514C66.2207 731.771 65.7686 727.365 65.711 722.294C65.7463 717.233 66.111 711.688 66.8053 705.661C67.4996 699.633 68.3424 693.527 69.3338 687.341C70.3345 681.063 71.3677 674.928 72.4335 668.938C73.6014 662.864 74.6255 657.291 75.5059 652.22C76.3955 647.056 77.0718 642.621 77.5348 638.916C78.0999 635.126 78.2335 632.373 77.9357 630.655C83.0341 630.318 87.3899 630.846 91.0031 632.238C92.5357 632.86 93.9987 633.709 95.3921 634.786C96.7949 635.769 97.9748 637.106 98.932 638.796C99.8984 640.393 100.545 642.38 100.871 644.758C101.299 647.051 101.216 649.763 100.623 652.893C99.761 657.779 98.7648 663.541 97.6342 670.182C96.513 676.73 95.4196 683.468 94.3542 690.397C93.3816 697.334 92.5205 704.096 91.7707 710.68C91.0301 717.172 90.6189 722.712 90.5371 727.3C92.7657 726.584 95.3286 725.808 98.2258 724.971C101.132 724.041 104.601 723.12 108.631 722.209C111.129 721.613 113.302 721.455 115.15 721.732C117.008 721.918 118.601 722.404 119.929 723.193C121.257 723.982 122.326 725.027 123.134 726.327C123.952 727.534 124.621 728.82 125.142 730.185C126.322 733.397 126.83 737.247 126.664 741.732Z" fill="#DF5C50"/>
<path d="M126.664 741.732L126.565 742.727L127.624 742.833L127.664 741.769L126.664 741.732ZM121.092 742.584L120.84 741.617L120.828 741.62L121.092 742.584ZM112.275 744.942L112.022 743.974L112.275 744.942ZM101.466 747.523L101.253 746.546L101.466 747.523ZM90.0576 749.06L90.008 748.061L90.0043 748.061L90.0576 749.06ZM79.5955 748.158L79.3566 749.129L79.3604 749.13L79.5955 748.158ZM71.4722 743.55L72.1907 742.854L72.1406 742.803L72.0837 742.759L71.4722 743.55ZM67.0672 735.514L66.0918 735.734L67.0672 735.514ZM65.711 722.294L64.711 722.287L64.711 722.296L64.7111 722.306L65.711 722.294ZM66.8053 705.661L67.7987 705.775L66.8053 705.661ZM69.3338 687.341L70.3212 687.499L70.3214 687.499L69.3338 687.341ZM72.4335 668.938L71.4514 668.749L71.4489 668.763L72.4335 668.938ZM75.5059 652.22L76.4911 652.391L76.4914 652.39L75.5059 652.22ZM77.5348 638.916L76.5457 638.768L76.5439 638.78L76.5425 638.792L77.5348 638.916ZM77.9357 630.655L77.8699 629.657L76.7604 629.73L76.9504 630.825L77.9357 630.655ZM91.0031 632.238L91.379 631.311L91.3708 631.308L91.3625 631.305L91.0031 632.238ZM95.3921 634.786L94.7807 635.577L94.799 635.591L94.8179 635.604L95.3921 634.786ZM98.932 638.796L98.0619 639.289L98.069 639.302L98.0765 639.314L98.932 638.796ZM100.871 644.758L99.8798 644.894L99.8831 644.917L99.8875 644.941L100.871 644.758ZM100.623 652.893L99.6403 652.707L99.6381 652.72L100.623 652.893ZM97.6342 670.182L98.6199 670.351L98.6201 670.35L97.6342 670.182ZM94.3542 690.397L93.3657 690.245L93.3639 690.258L94.3542 690.397ZM91.7707 710.68L92.7642 710.794L92.7643 710.793L91.7707 710.68ZM90.5371 727.3L89.5372 727.282L89.5123 728.679L90.8429 728.252L90.5371 727.3ZM98.2258 724.971L98.5034 725.931L98.517 725.927L98.5305 725.923L98.2258 724.971ZM108.631 722.209L108.852 723.184L108.863 723.181L108.631 722.209ZM115.15 721.732L115.002 722.721L115.026 722.725L115.051 722.728L115.15 721.732ZM119.929 723.193L120.44 722.334L119.929 723.193ZM123.134 726.327L122.285 726.855L122.295 726.871L122.306 726.887L123.134 726.327ZM125.142 730.185L126.08 729.84L126.076 729.828L125.142 730.185ZM126.763 740.737C125.452 740.607 123.438 740.938 120.84 741.617L121.345 743.552C123.947 742.872 125.647 742.636 126.565 742.727L126.763 740.737ZM120.828 741.62C118.325 742.307 115.39 743.092 112.022 743.974L112.529 745.909C115.902 745.025 118.845 744.238 121.357 743.549L120.828 741.62ZM112.022 743.974C108.666 744.854 105.076 745.711 101.253 746.546L101.679 748.5C105.526 747.66 109.143 746.797 112.529 745.909L112.022 743.974ZM101.253 746.546C97.4694 747.372 93.7213 747.876 90.008 748.061L90.1072 750.058C93.9349 749.868 97.7925 749.349 101.679 748.5L101.253 746.546ZM90.0043 748.061C86.4154 748.253 83.0257 747.959 79.8305 747.186L79.3604 749.13C82.7596 749.952 86.3447 750.259 90.1109 750.058L90.0043 748.061ZM79.8343 747.187C76.8053 746.442 74.2659 744.998 72.1907 742.854L70.7538 744.246C73.1009 746.67 75.977 748.298 79.3566 749.129L79.8343 747.187ZM72.0837 742.759C70.2449 741.338 68.8604 738.909 68.0426 735.293L66.0918 735.734C66.967 739.604 68.5193 742.532 70.8608 744.341L72.0837 742.759ZM68.0426 735.293C67.2156 731.637 66.768 727.304 66.7109 722.283L64.7111 722.306C64.7692 727.426 65.2257 731.905 66.0918 735.734L68.0426 735.293ZM66.711 722.301C66.7459 717.282 67.1078 711.774 67.7987 705.775L65.8119 705.546C65.1143 711.603 64.7466 717.184 64.711 722.287L66.711 722.301ZM67.7987 705.775C68.4913 699.763 69.3321 693.671 70.3212 687.499L68.3464 687.183C67.3528 693.383 66.5079 699.504 65.8119 705.546L67.7987 705.775ZM70.3214 687.499C71.3211 681.226 72.3533 675.097 73.418 669.113L71.4489 668.763C70.3821 674.759 69.3478 680.9 68.3463 687.184L70.3214 687.499ZM73.4155 669.127C74.5843 663.048 75.6095 657.469 76.4911 652.391L74.5206 652.049C73.6414 657.113 72.6184 662.68 71.4515 668.749L73.4155 669.127ZM76.4914 652.39C77.3826 647.216 78.0616 642.765 78.527 639.04L76.5425 638.792C76.082 642.477 75.4083 646.896 74.5204 652.05L76.4914 652.39ZM78.5238 639.063C79.0904 635.264 79.2483 632.372 78.921 630.484L76.9504 630.825C77.2186 632.373 77.1093 634.989 76.5457 638.768L78.5238 639.063ZM78.0015 631.652C82.9993 631.323 87.2018 631.845 90.6436 633.171L91.3625 631.305C87.578 629.847 83.0689 629.314 77.8699 629.657L78.0015 631.652ZM90.6272 633.165C92.0702 633.75 93.4546 634.552 94.7807 635.577L96.0036 633.994C94.5428 632.865 93.0012 631.969 91.379 631.311L90.6272 633.165ZM94.8179 635.604C96.0837 636.492 97.1681 637.711 98.0619 639.289L99.8021 638.303C98.7815 636.502 97.506 635.047 95.9664 633.967L94.8179 635.604ZM98.0765 639.314C98.9552 640.766 99.5674 642.614 99.8798 644.894L101.861 644.622C101.522 642.146 100.842 640.02 99.7875 638.278L98.0765 639.314ZM99.8875 644.941C100.286 647.077 100.218 649.658 99.6403 652.707L101.605 653.079C102.214 649.869 102.311 647.026 101.854 644.574L99.8875 644.941ZM99.6381 652.72C98.7757 657.607 97.7792 663.372 96.6484 670.014L98.6201 670.35C99.7504 663.711 100.746 657.95 101.608 653.067L99.6381 652.72ZM96.6486 670.013C95.5263 676.567 94.432 683.311 93.3658 690.245L95.3426 690.549C96.4072 683.625 97.4996 676.893 98.6199 670.351L96.6486 670.013ZM93.3639 690.258C92.3902 697.204 91.5279 703.973 90.7771 710.567L92.7643 710.793C93.513 704.218 94.3731 697.465 95.3445 690.535L93.3639 690.258ZM90.7771 710.567C90.0343 717.079 89.6198 722.652 89.5372 727.282L91.5369 727.318C91.618 722.772 92.0259 717.266 92.7642 710.794L90.7771 710.567ZM90.8429 728.252C93.0599 727.54 95.6131 726.766 98.5034 725.931L97.9483 724.01C95.0441 724.849 92.4715 725.628 90.2312 726.348L90.8429 728.252ZM98.5305 725.923C101.402 725.005 104.84 724.091 108.852 723.184L108.41 721.233C104.361 722.149 100.863 723.077 97.9212 724.018L98.5305 725.923ZM108.863 723.181C111.28 722.605 113.318 722.468 115.002 722.721L115.299 720.744C113.286 720.441 110.978 720.621 108.399 721.236L108.863 723.181ZM115.051 722.728C116.793 722.901 118.239 723.353 119.418 724.053L120.44 722.334C118.962 721.456 117.222 720.934 115.249 720.737L115.051 722.728ZM119.418 724.053C120.61 724.761 121.562 725.692 122.285 726.855L123.983 725.798C123.089 724.361 121.904 723.204 120.44 722.334L119.418 724.053ZM122.306 726.887C123.081 728.03 123.714 729.248 124.207 730.541L126.076 729.828C125.528 728.391 124.823 727.037 123.962 725.766L122.306 726.887ZM124.203 730.529C125.327 733.589 125.827 737.301 125.665 741.696L127.664 741.769C127.832 737.192 127.317 733.206 126.08 729.84L124.203 730.529Z" fill="black" mask="url(#path-3-outside-1_13_29)"/>
</g>
</g>
<defs>
<filter id="filter0_d_13_29" x="111.5" y="0" width="11" height="575" filterUnits="userSpaceOnUse" color-interpolation-filters="sRGB">
<feFlood flood-opacity="0" result="BackgroundImageFix"/>
<feColorMatrix in="SourceAlpha" type="matrix" values="0 0 0 0 0 0 0 0 0 0 0 0 0 0 0 0 0 0 127 0" result="hardAlpha"/>
<feOffset dy="4"/>
<feGaussianBlur stdDeviation="2"/>
<feComposite in2="hardAlpha" operator="out"/>
<feColorMatrix type="matrix" values="0 0 0 0 0 0 0 0 0 0 0 0 0 0 0 0 0 0 0.25 0"/>
<feBlend mode="normal" in2="BackgroundImageFix" result="effect1_dropShadow_13_29"/>
<feBlend mode="normal" in="SourceGraphic" in2="effect1_dropShadow_13_29" result="shape"/>
</filter>
<filter id="filter1_d_13_29" x="58.5302" y="629.026" width="82.7373" height="132.408" filterUnits="userSpaceOnUse" color-interpolation-filters="sRGB">
<feFlood flood-opacity="0" result="BackgroundImageFix"/>
<feColorMatrix in="SourceAlpha" type="matrix" values="0 0 0 0 0 0 0 0 0 0 0 0 0 0 0 0 0 0 127 0" result="hardAlpha"/>
<feOffset dy="4"/>
<feGaussianBlur stdDeviation="2"/>
<feComposite in2="hardAlpha" operator="out"/>
<feColorMatrix type="matrix" values="0 0 0 0 0 0 0 0 0 0 0 0 0 0 0 0 0 0 0.25 0"/>
<feBlend mode="normal" in2="BackgroundImageFix" result="effect1_dropShadow_13_29"/>
<feBlend mode="normal" in="SourceGraphic" in2="effect1_dropShadow_13_29" result="shape"/>
</filter>
</defs>
</svg>
