<svg width="233" height="800" viewBox="0 0 233 800" fill="none" xmlns="http://www.w3.org/2000/svg">
<g id="O">
<circle id="Ellipse 2" cx="116.5" cy="683.5" r="114" stroke="#666666" stroke-width="5"/>
<g id="Line 3" filter="url(#filter0_d_13_30)">
<path d="M117 0L117 567" stroke="#666666" stroke-width="3"/>
</g>
<g id="O_2" filter="url(#filter1_d_13_30)">
<mask id="path-3-outside-1_13_30" maskUnits="userSpaceOnUse" x="70.3711" y="600.829" width="111.643" height="136.026" fill="black">
<rect fill="white" x="70.3711" y="600.829" width="111.643" height="136.026"/>
<path d="M81.0409 667.527C76.3375 640.635 84.9718 615.852 113.932 610.787C144.616 605.42 165.674 637.446 171.614 671.405C175.382 692.953 165.838 722.692 140.326 727.154C109.124 732.612 85.7444 694.419 81.0409 667.527ZM134.889 702.167C145.749 700.268 149.995 687.978 147.855 675.738C145.443 661.948 133.556 632.582 117.352 635.416C105.63 637.466 102.327 649.058 104.589 661.987C106.277 671.64 118.168 705.092 134.889 702.167Z"/>
</mask>
<path d="M81.0409 667.527C76.3375 640.635 84.9718 615.852 113.932 610.787C144.616 605.42 165.674 637.446 171.614 671.405C175.382 692.953 165.838 722.692 140.326 727.154C109.124 732.612 85.7444 694.419 81.0409 667.527ZM134.889 702.167C145.749 700.268 149.995 687.978 147.855 675.738C145.443 661.948 133.556 632.582 117.352 635.416C105.63 637.466 102.327 649.058 104.589 661.987C106.277 671.64 118.168 705.092 134.889 702.167Z" fill="#F4B400"/>
<path d="M82.026 667.354C79.698 654.044 80.692 641.363 85.7537 631.426C90.7928 621.533 99.9144 614.253 114.104 611.772L113.76 609.802C98.9896 612.385 89.3138 620.03 83.9716 630.518C78.6519 640.961 77.6805 654.118 80.0559 667.699L82.026 667.354ZM114.104 611.772C129.006 609.165 141.61 615.607 151.29 626.996C160.988 638.407 167.681 654.723 170.628 671.578L172.599 671.233C169.607 654.128 162.801 637.452 152.814 625.701C142.809 613.929 129.543 607.041 113.76 609.802L114.104 611.772ZM170.628 671.578C172.479 682.157 171.058 694.767 166.048 705.256C161.046 715.727 152.515 724.007 140.153 726.169L140.498 728.139C153.649 725.839 162.646 717.019 167.852 706.118C173.05 695.235 174.517 682.202 172.599 671.233L170.628 671.578ZM140.153 726.169C125.046 728.812 111.727 720.916 101.51 708.826C91.2978 696.741 84.3489 680.635 82.026 667.354L80.0559 667.699C82.4365 681.31 89.5291 697.747 99.9827 710.117C110.432 722.483 124.403 730.954 140.498 728.139L140.153 726.169ZM135.062 703.152C140.88 702.135 144.901 698.32 147.161 693.236C149.41 688.178 149.937 681.837 148.84 675.566L146.87 675.911C147.914 681.879 147.388 687.803 145.334 692.424C143.29 697.02 139.758 700.301 134.717 701.182L135.062 703.152ZM148.84 675.566C147.614 668.559 143.999 657.65 138.63 648.823C135.944 644.409 132.785 640.456 129.214 637.781C125.629 635.095 121.574 633.662 117.179 634.431L117.524 636.401C121.231 635.752 124.739 636.927 128.015 639.382C131.305 641.846 134.307 645.566 136.921 649.862C142.149 658.458 145.683 669.128 146.87 675.911L148.84 675.566ZM117.179 634.431C110.962 635.518 106.936 639.17 104.805 644.234C102.696 649.243 102.454 655.585 103.604 662.159L105.574 661.815C104.462 655.46 104.74 649.542 106.648 645.01C108.533 640.533 112.019 637.364 117.524 636.401L117.179 634.431ZM103.604 662.159C104.468 667.102 107.903 677.988 113.234 687.291C115.9 691.945 119.078 696.269 122.702 699.252C126.336 702.245 130.502 703.95 135.062 703.152L134.717 701.182C130.916 701.847 127.325 700.468 123.974 697.709C120.612 694.941 117.577 690.847 114.969 686.297C109.752 677.192 106.398 666.525 105.574 661.815L103.604 662.159Z" fill="black" mask="url(#path-3-outside-1_13_30)"/>
</g>
</g>
<defs>
<filter id="filter0_d_13_30" x="111.5" y="0" width="11" height="575" filterUnits="userSpaceOnUse" color-interpolation-filters="sRGB">
<feFlood flood-opacity="0" result="BackgroundImageFix"/>
<feColorMatrix in="SourceAlpha" type="matrix" values="0 0 0 0 0 0 0 0 0 0 0 0 0 0 0 0 0 0 127 0" result="hardAlpha"/>
<feOffset dy="4"/>
<feGaussianBlur stdDeviation="2"/>
<feComposite in2="hardAlpha" operator="out"/>
<feColorMatrix type="matrix" values="0 0 0 0 0 0 0 0 0 0 0 0 0 0 0 0 0 0 0.25 0"/>
<feBlend mode="normal" in2="BackgroundImageFix" result="effect1_dropShadow_13_30"/>
<feBlend mode="normal" in="SourceGraphic" in2="effect1_dropShadow_13_30" result="shape"/>
</filter>
<filter id="filter1_d_13_30" x="68.3878" y="602.797" width="115.758" height="140.649" filterUnits="userSpaceOnUse" color-interpolation-filters="sRGB">
<feFlood flood-opacity="0" result="BackgroundImageFix"/>
<feColorMatrix in="SourceAlpha" type="matrix" values="0 0 0 0 0 0 0 0 0 0 0 0 0 0 0 0 0 0 127 0" result="hardAlpha"/>
<feOffset dy="4"/>
<feGaussianBlur stdDeviation="2"/>
<feComposite in2="hardAlpha" operator="out"/>
<feColorMatrix type="matrix" values="0 0 0 0 0 0 0 0 0 0 0 0 0 0 0 0 0 0 0.25 0"/>
<feBlend mode="normal" in2="BackgroundImageFix" result="effect1_dropShadow_13_30"/>
<feBlend mode="normal" in="SourceGraphic" in2="effect1_dropShadow_13_30" result="shape"/>
</filter>
</defs>
</svg>
